<?xml version="1.0" encoding="UTF-8"?>
<!DOCTYPE svg PUBLIC "-//W3C//DTD SVG 1.1//EN" "http://www.w3.org/Graphics/SVG/1.1/DTD/svg11.dtd">
<!-- Creator: CorelDRAW 2017 -->
<svg xmlns="http://www.w3.org/2000/svg" xml:space="preserve" width="84.5356mm" height="32.935mm" version="1.1" style="shape-rendering:geometricPrecision; text-rendering:geometricPrecision; image-rendering:optimizeQuality; fill-rule:evenodd; clip-rule:evenodd"
viewBox="0 0 2290.86 892.52"
 xmlns:xlink="http://www.w3.org/1999/xlink">
 <defs>
  <style type="text/css">
   <![CDATA[
    .str0 {stroke:#4782A4;stroke-width:20.32;stroke-miterlimit:22.9256}
    .fil1 {fill:none}
    .fil0 {fill:#4782A4;fill-rule:nonzero}
   ]]>
  </style>
 </defs>
 <g id="Слой_x0020_1">
  <metadata id="CorelCorpID_0Corel-Layer"/>
  <polygon class="fil0" points="1001.16,568.85 1001.16,350.36 941.47,350.36 941.47,321.32 1084.87,321.32 1084.87,350.36 1025.18,350.36 1025.18,568.85 "/>
  <path id="1" class="fil0" d="M1110.12 568.85l0 -247.53 80.26 0c16.14,0 28.41,2.25 36.8,6.69 8.39,4.44 15.09,12.27 20.11,23.51 5.02,11.24 7.5,23.68 7.5,37.28 0,17.57 -4.17,32.38 -12.47,44.42 -8.31,12.04 -21.12,19.65 -38.49,22.93 6.36,4.15 11.17,8.3 14.46,12.33 7,8.76 13.61,19.76 19.81,32.96l31.32 67.42 -29.93 0 -23.94 -51.51c-6.96,-14.92 -12.73,-26.28 -17.24,-34.17 -4.55,-7.89 -8.6,-13.37 -12.18,-16.54 -3.54,-3.11 -7.21,-5.3 -10.92,-6.57 -2.7,-0.75 -7.12,-1.15 -13.32,-1.15l-27.74 0 0 109.94 -24.03 0zm24.03 -138.29l51.42 0c10.96,0 19.48,-1.56 25.63,-4.67 6.15,-3.05 10.83,-8.01 13.99,-14.87 3.2,-6.8 4.8,-14.17 4.8,-22.18 0,-11.7 -3.08,-21.38 -9.27,-28.93 -6.2,-7.55 -15.98,-11.29 -29.34,-11.29l-57.24 0 0 81.93z"/>
  <path id="2" class="fil0" d="M1410.88 321.32l24.03 0 0 142.95c0,24.89 -2.07,44.66 -6.16,59.29 -4.13,14.58 -11.55,26.51 -22.26,35.67 -10.75,9.16 -24.79,13.77 -42.23,13.77 -16.9,0 -30.77,-3.98 -41.52,-11.99 -10.79,-8.01 -18.46,-19.53 -23.06,-34.68 -4.59,-15.15 -6.91,-35.84 -6.91,-62.06l0 -142.95 24.03 0 0 142.89c0,21.49 1.47,37.39 4.38,47.53 2.91,10.2 7.88,18.09 15,23.57 7.08,5.53 15.76,8.3 26.01,8.3 17.54,0 30.06,-5.47 37.52,-16.36 7.46,-10.95 11.17,-31.92 11.17,-63.04l0 -142.89z"/>
  <polygon id="3" class="fil0" points="1475.41,568.85 1475.41,321.32 1606.17,321.32 1606.17,350.36 1499.44,350.36 1499.44,426.41 1599.35,426.41 1599.35,455.45 1499.44,455.45 1499.44,539.81 1610.48,539.81 1610.48,568.85 "/>
  <path id="4" class="fil0" d="M1758.43 477.58l35.41 14.87c-5.44,27.25 -14.5,47.48 -27.15,60.73 -12.65,13.19 -28.66,19.82 -48.1,19.82 -24.07,0 -43.84,-11.24 -59.35,-33.71 -15.47,-22.47 -23.23,-53.18 -23.23,-92.19 0,-41.2 7.8,-73.23 23.35,-96.05 15.56,-22.82 36.04,-34.23 61.42,-34.23 22.17,0 40.17,8.99 54,26.91 8.27,10.6 14.42,25.81 18.55,45.69l-36.17 11.76c-2.15,-12.79 -6.62,-22.93 -13.4,-30.36 -6.83,-7.43 -15.09,-11.12 -24.79,-11.12 -13.45,0 -24.37,6.57 -32.71,19.76 -8.39,13.14 -12.56,34.45 -12.56,63.96 0,31.23 4.13,53.53 12.35,66.78 8.26,13.31 18.97,19.94 32.16,19.94 9.74,0 18.12,-4.21 25.12,-12.68 6.99,-8.47 12.05,-21.72 15.09,-39.87z"/>
  <path id="5" class="fil0" d="M1988.37 568.85l-39.5 0 -15.64 -56.35 -72.63 0 -15.05 56.35 -38.78 0 70.31 -247.53 38.74 0 72.54 247.53zm-67.02 -98.18l-25.16 -91.61 -24.45 91.61 49.61 0z"/>
  <polygon id="6" class="fil0" points="2008.9,568.85 2008.9,323.39 2045.57,323.39 2045.57,527.02 2136.37,527.02 2136.37,568.85 "/>
  <polygon id="7" class="fil0" points="2163.39,568.85 2163.39,323.39 2200.06,323.39 2200.06,527.02 2290.86,527.02 2290.86,568.85 "/>
  <path class="fil1 str0" d="M231.65 338.28l108.3 -108.29 322.6 322.6 -325.57 325.57 -322.6 -322.6 106.34 -106.34 213.33 213.33 110.93 -110.93 -213.33 -213.33zm55.71 -55.71l270.49 270.49 -220.4 220.4 -270.49 -270.49"/>
  <path class="fil1 str0" d="M445.27 554.24l-108.3 108.29 -322.6 -322.6 325.57 -325.57 322.6 322.6 -106.34 106.34 -213.33 -213.33 -110.93 110.93 213.33 213.33zm-55.71 55.71l-270.49 -270.49 220.4 -220.4 270.49 270.49"/>
 </g>
</svg>
